<?xml version="1.0" encoding="utf-8"?>
<!-- Generator: Adobe Illustrator 22.1.0, SVG Export Plug-In . SVG Version: 6.00 Build 0)  -->
<svg version="1.1" id="Layer_1" xmlns="http://www.w3.org/2000/svg" xmlns:xlink="http://www.w3.org/1999/xlink" x="0px" y="0px"
	 viewBox="0 0 100 100" style="enable-background:new 0 0 100 100;" xml:space="preserve">
<style type="text/css">
	.st0{fill:#1A1E4E;}
</style>
<g>
	<path class="st0" d="M3.8,15.9L34,44.4c9,8.5,23.1,8.5,32.1,0l30.2-28.6l-0.4,0H4.1L3.8,15.9L3.8,15.9z"/>
	<path class="st0" d="M0,81.9l28.9-35.4L0.1,19.2C0,19.5,0,19.7,0,20v61.5L0,81.9L0,81.9z"/>
	<path class="st0" d="M72.3,45.4l27.7,34V20c0-0.3,0-0.5-0.1-0.8L72.3,45.4L72.3,45.4z"/>
	<path class="st0" d="M98.2,85L68.7,48.8c-10.2,8.9-25.4,9.4-36.1,1L3.4,85.6c0.3,0,0.5,0.1,0.8,0.1h91.7
		C96.7,85.7,97.5,85.4,98.2,85L98.2,85z"/>
</g>
</svg>
