<?xml version="1.0" encoding="utf-8"?>
<!-- Generator: Adobe Illustrator 22.1.0, SVG Export Plug-In . SVG Version: 6.00 Build 0)  -->
<svg version="1.1" id="Layer_1" xmlns="http://www.w3.org/2000/svg" xmlns:xlink="http://www.w3.org/1999/xlink" x="0px" y="0px"
	 viewBox="0 0 100 100" style="enable-background:new 0 0 100 100;" xml:space="preserve">
<style type="text/css">
	.st0{fill:#1A1E4E;}
</style>
<title>Icon_Phone</title>
<path class="st0" d="M93.7,65.6L58.3,4.5c-2.5-4.3-8-5.7-12.3-3.2L9.6,22.2c-4.3,2.4-5.8,7.9-3.4,12.2c0,0,0,0,0,0.1l35.4,61.1
	c2.5,4.3,8,5.8,12.3,3.3l36.3-20.9C94.7,75.4,96.2,69.9,93.7,65.6C93.7,65.6,93.7,65.6,93.7,65.6z M70.3,85
	c-2.8,1.6-6.3,0.7-7.9-2.1c-1.6-2.8-0.7-6.3,2.1-7.9c2.8-1.6,6.3-0.7,7.9,2.1c0,0,0,0,0,0C74,79.9,73,83.4,70.3,85z M42.2,84.1
	L10.6,29.5L51.9,5.7l31.6,54.6L42.2,84.1z"/>
</svg>
