<?xml version="1.0" encoding="utf-8"?>
<!-- Generator: Adobe Illustrator 22.1.0, SVG Export Plug-In . SVG Version: 6.00 Build 0)  -->
<svg version="1.1" id="Layer_1" xmlns="http://www.w3.org/2000/svg" xmlns:xlink="http://www.w3.org/1999/xlink" x="0px" y="0px"
	 viewBox="0 0 100 100" style="enable-background:new 0 0 100 100;" xml:space="preserve">
<style type="text/css">
	.st0{fill:#1A1E4E;}
</style>
<g>
	<path class="st0" d="M71.5,0H28.5c-4.2,0-7.6,3.5-7.6,7.6v84.7c0,4.2,3.5,7.6,7.6,7.6h43.1c4.2,0,7.6-3.5,7.6-7.6V7.6
		C79.2,3.5,75.7,0,71.5,0z M55.4,93.1H44.8c-1.1,0-1.8-0.7-1.8-1.8s0.7-1.8,1.8-1.8h10.5c0.9,0,1.8,0.7,1.8,1.8S56.3,93.1,55.4,93.1
		z M74.3,82.5H25.9V12.4h48.4V82.5z"/>
</g>
</svg>
